<?xml version="1.0" standalone="no"?><!-- Generator: Gravit.io --><svg xmlns="http://www.w3.org/2000/svg" xmlns:xlink="http://www.w3.org/1999/xlink" style="isolation:isolate" viewBox="0 0 50 50" width="50" height="50"><defs><clipPath id="_clipPath_OgRZZRbPTTXeohY4e56xhdWGMUfASEMm"><rect width="50" height="50"/></clipPath></defs><g clip-path="url(#_clipPath_OgRZZRbPTTXeohY4e56xhdWGMUfASEMm)"><g id="Symbol 1"><g id="Water"><g id="g20"><path d=" M 24.984 0 C 38.815 0 50 11.185 50 24.984 C 50 38.815 38.815 50 24.984 50 C 11.185 50 0 38.815 0 24.984 C 0 11.185 11.185 0 24.984 0 Z " fill-rule="evenodd" fill="rgb(32,175,223)"/></g><g id="g24"><path d=" M 24.984 0 C 38.815 0 50 11.185 50 24.984 C 50 38.815 38.815 50 24.984 50 L 24.984 0 Z " fill-rule="evenodd" fill="rgb(11,135,179)"/></g><g id="g28"><path d=" M 35.318 9.2 C 30.624 9.798 25.74 11.815 21.739 14.682 C 7.845 24.638 12.476 40.832 26.559 39.162 C 32.514 38.469 35.822 33.774 35.696 29.112 C 35.633 26.654 34.657 24.795 32.577 22.275 C 28.828 17.801 31.159 12.791 35.822 10.208 C 37.177 9.452 36.736 9.011 35.318 9.2 Z " fill-rule="evenodd" fill="rgb(201,235,249)"/></g><g id="g32"><path d=" M 35.318 9.2 C 31.853 9.641 28.261 10.87 24.984 12.634 L 24.984 39.288 C 25.52 39.288 26.024 39.225 26.559 39.162 C 32.514 38.469 35.822 33.774 35.696 29.112 C 35.633 26.654 34.657 24.795 32.577 22.275 C 28.828 17.801 31.159 12.791 35.822 10.208 C 37.177 9.452 36.736 9.011 35.318 9.2 Z " fill-rule="evenodd" fill="rgb(102,206,246)"/></g></g></g></g></svg>